<?xml version="1.0" standalone="no"?>
<!DOCTYPE svg PUBLIC "-//W3C//DTD SVG 20010904//EN"
 "http://www.w3.org/TR/2001/REC-SVG-20010904/DTD/svg10.dtd">
<svg version="1.0" xmlns="http://www.w3.org/2000/svg"
 width="187.000000pt" height="187.000000pt" viewBox="0 0 187.000000 187.000000"
 preserveAspectRatio="xMidYMid meet">
<metadata>
Created by potrace 1.11, written by Peter Selinger 2001-2013
</metadata>
<g transform="translate(0.000000,187.000000) scale(0.100000,-0.100000)"
fill="#000000" stroke="none">
<path d="M513 1817 l-83 -51 0 -622 0 -621 85 -52 c95 -59 79 -60 198 16 l67
43 0 130 c0 71 2 130 5 130 3 0 35 -18 70 -41 l65 -41 0 -123 0 -123 85 -53
85 -52 0 -122 0 -122 85 -52 85 -52 85 51 85 51 0 130 0 129 -80 51 -80 51 0
122 0 121 -80 50 c-105 66 -105 76 0 141 56 35 80 55 80 69 0 14 23 35 80 70
l80 50 0 130 0 130 -85 52 -85 53 -85 -53 c-54 -33 -85 -59 -87 -72 -2 -11
-25 -34 -53 -51 -27 -18 -69 -45 -91 -62 l-42 -30 -61 39 -61 38 0 123 c0 68
-3 180 -7 249 l-6 126 -80 49 c-44 27 -83 50 -86 51 -3 1 -43 -22 -88 -50z
m158 -9 c38 -24 69 -46 69 -50 0 -4 -31 -26 -69 -48 l-70 -42 -70 42 c-39 23
-71 45 -71 49 1 5 128 88 139 90 2 1 35 -18 72 -41z m88 -236 l1 -52 -70 -45
c-39 -25 -72 -45 -75 -45 -3 0 -5 50 -5 110 l0 110 68 43 67 44 6 -56 c4 -31
7 -80 8 -109z m1 -190 l0 -108 -67 -39 c-37 -22 -70 -41 -75 -43 -4 -2 -8 46
-8 106 l0 110 68 40 c37 23 70 41 75 42 4 0 7 -49 7 -108z m571 16 c37 -24 68
-46 69 -49 0 -4 -31 -26 -70 -49 l-70 -42 -70 41 c-38 23 -70 45 -70 49 0 6
128 91 139 92 2 0 34 -19 72 -42z m79 -182 l0 -113 -62 -38 c-35 -21 -66 -40
-70 -42 -5 -2 -8 46 -8 107 l0 110 68 45 c37 24 68 44 70 45 1 0 2 -51 2 -114z
m-320 -16 c0 -44 -2 -80 -4 -80 -8 0 -126 72 -131 80 -5 9 102 78 123 79 9 1
12 -21 12 -79z m-189 -38 c-1 -4 -33 -26 -69 -48 l-65 -42 -61 36 c-96 55 -96
50 -14 102 l72 47 71 -44 c38 -24 68 -47 66 -51z m9 -102 l0 -80 -60 37 c-33
21 -60 41 -60 45 0 5 108 77 118 78 1 0 2 -36 2 -80z m340 -81 c0 -13 -117
-99 -136 -99 -2 0 -4 45 -4 100 l0 99 70 -42 c41 -25 70 -49 70 -58z m-228
-89 c37 -23 68 -47 68 -55 0 -7 -24 -28 -52 -46 -29 -17 -63 -38 -75 -47 l-23
-14 0 101 c0 55 3 101 7 101 4 0 37 -18 75 -40z m-262 -95 c0 -12 -125 -95
-143 -95 -4 0 -7 45 -7 100 l0 100 75 -46 c41 -25 75 -52 75 -59z m411 -37
c38 -24 69 -45 69 -48 0 -3 -33 -24 -72 -47 -80 -46 -71 -47 -167 14 l-54 35
69 44 c38 24 73 44 78 44 5 0 40 -19 77 -42z m-411 -117 l0 -109 -69 -41 c-38
-22 -72 -41 -75 -41 -3 0 -6 49 -6 109 l0 110 68 40 c37 23 70 41 75 41 4 0 7
-49 7 -109z m490 -61 l0 -109 -57 -37 c-88 -56 -83 -60 -83 64 l0 110 63 41
c34 22 65 40 70 40 4 1 7 -48 7 -109z m93 -173 l68 -43 -75 -47 -76 -47 -71
46 c-39 25 -68 49 -63 53 26 24 121 81 134 81 8 0 46 -20 83 -43z m67 -176 l0
-109 -63 -41 c-35 -22 -66 -41 -70 -41 -4 0 -7 49 -7 109 l0 108 68 42 c37 22
68 41 70 41 1 0 2 -49 2 -109z"/>
</g>
</svg>
