<?xml version="1.0" encoding="UTF-8"?>
<svg width="221px" height="58px" viewBox="0 0 221 58" version="1.1" xmlns="http://www.w3.org/2000/svg" xmlns:xlink="http://www.w3.org/1999/xlink">
    <!-- Generator: Sketch 57.1 (83088) - https://sketch.com -->
    <title>KARMEN Copy</title>
    <desc>Created with Sketch.</desc>
    <g id="Page-1" stroke="none" stroke-width="1" fill="none" fill-rule="evenodd">
        <g id="Logo" transform="translate(-372.000000, -252.000000)" fill="#EA262D" fill-rule="nonzero">
            <path d="M392.304,306.216 L392.232,298.656 L387.12,295.488 L387.12,287.856 L382.8,285.192 L382.656,293.544 L377.328,296.856 L372,293.616 L372,255.24 L377.256,252 L382.584,255.312 L382.8,270.576 L386.976,273.168 L386.976,272.448 L392.232,269.208 L392.232,268.056 L397.632,264.672 L402.888,267.912 L402.888,275.904 L397.992,279 L397.992,280.152 L392.88,283.392 L392.88,284.472 L397.992,287.712 L397.992,295.2 L402.888,298.296 L402.888,306.288 L397.632,309.528 L392.304,306.216 Z M397.992,301.824 L397.992,308.736 L402.384,305.928 L402.384,299.088 L397.992,301.824 Z M393.096,298.512 L397.632,301.392 L402.312,298.512 L397.632,295.632 L393.096,298.512 Z M392.88,291.024 L392.88,298.008 L397.272,295.272 L397.272,288.288 L392.88,291.024 Z M377.544,289.08 L377.544,296.064 L382.152,293.328 L382.152,286.344 L377.544,289.08 Z M387.912,287.784 L392.52,290.592 L397.2,287.784 L392.592,284.904 L387.912,287.784 Z M377.544,281.952 L377.544,288.36 L382.152,285.696 L382.152,284.76 L377.544,281.952 Z M387.84,280.8 L387.84,287.208 L392.232,284.472 L392.232,283.464 L387.84,280.8 Z M392.88,276.336 L392.88,282.816 L397.272,280.08 L397.272,279 L392.88,276.336 Z M382.8,276.984 L386.976,279.576 L386.976,274.392 L382.8,276.984 Z M397.992,271.368 L397.992,278.352 L402.384,275.616 L402.384,268.632 L397.992,271.368 Z M377.904,273.96 L382.368,276.624 L386.976,273.816 L382.368,270.936 L377.904,273.744 L377.904,273.96 Z M387.912,272.592 L392.232,275.256 L392.232,269.928 L387.912,272.592 Z M377.544,266.328 L377.544,273.168 L382.152,270.432 L382.152,263.52 L377.544,266.328 Z M393.024,268.128 L397.632,270.936 L402.168,268.128 L397.632,265.248 L393.024,268.128 Z M377.544,258.768 L377.544,265.752 L382.152,262.872 L381.936,256.032 L377.544,258.768 Z M372.72,255.456 L377.256,258.264 L381.864,255.456 L377.328,252.576 L372.72,255.456 Z M428.97,306.288 L428.898,298.728 L419.466,292.824 L419.394,293.688 L414.066,296.928 L408.81,293.76 L408.738,262.872 L413.706,259.848 L413.706,258.696 L419.034,255.312 L434.802,265.032 L434.802,272.52 L439.698,275.616 L439.698,306.288 L434.37,309.6 L428.97,306.288 Z M434.802,301.896 L434.802,308.808 L439.194,306.072 L439.194,299.16 L434.802,301.896 Z M434.802,294.264 L434.802,301.176 L439.194,298.512 L439.194,291.6 L434.802,294.264 Z M414.426,289.728 L414.426,296.136 L418.818,293.472 L418.818,292.392 L414.426,289.728 Z M434.802,286.632 L434.802,293.616 L439.194,290.88 L439.194,283.896 L434.802,286.632 Z M424.722,287.856 L428.898,290.376 L428.898,285.264 L424.722,287.856 Z M419.682,284.616 L424.218,287.424 L428.754,284.616 L424.146,281.808 L419.682,284.616 Z M434.802,279.072 L434.802,285.984 L439.194,283.248 L439.194,276.336 L434.802,279.072 Z M414.498,281.52 L419.106,284.328 L423.714,281.52 L419.106,278.64 L414.498,281.52 Z M419.466,278.208 L428.898,284.112 L428.898,275.904 L419.466,270 L419.466,278.208 Z M414.426,273.96 L414.426,280.872 L418.818,278.136 L418.818,271.224 L414.426,273.96 Z M429.834,275.832 L434.37,278.64 L438.834,275.904 L438.834,275.688 L434.442,272.952 L429.834,275.832 Z M429.546,268.344 L429.546,275.256 L434.154,272.448 L434.154,265.536 L429.546,268.344 Z M414.426,266.832 L414.426,273.384 L418.818,270.648 L418.818,269.568 L414.426,266.832 Z M424.866,265.176 L429.258,267.912 L433.866,265.032 L429.33,262.224 L424.866,264.96 L424.866,265.176 Z M409.458,263.088 L413.706,265.752 L413.706,260.568 L409.458,263.088 Z M419.61,261.864 L424.146,264.672 L428.754,261.864 L424.146,259.056 L419.61,261.864 Z M414.498,258.696 L419.106,261.504 L423.642,258.696 L419.106,255.816 L414.498,258.696 Z M467.364,306.216 L467.364,298.8 L462.108,295.416 L462.108,287.856 L457.932,285.336 L457.788,293.616 L452.388,296.928 L447.132,293.688 L447.132,255.312 L452.388,252 L473.196,265.032 L473.124,272.52 L478.02,275.544 L478.02,283.536 L473.124,286.632 L473.124,295.272 L478.02,298.368 L478.02,306.36 L472.764,309.528 L467.364,306.216 Z M473.124,301.896 L473.124,308.664 L477.516,305.928 L477.516,299.16 L473.124,301.896 Z M468.228,298.512 L472.836,301.392 L477.444,298.584 L472.764,295.704 L468.228,298.512 Z M468.012,291.096 L468.012,298.008 L472.404,295.272 L472.404,288.36 L468.012,291.096 Z M452.676,289.296 L452.676,296.136 L457.284,293.328 L457.284,286.416 L452.676,289.296 Z M468.012,283.968 L468.012,290.376 L472.404,287.712 L472.404,286.632 L468.012,283.968 Z M452.676,282.024 L452.676,288.576 L457.284,285.768 L457.284,284.832 L452.676,282.024 Z M473.124,279.072 L473.124,285.984 L477.516,283.248 L477.516,276.336 L473.124,279.072 Z M463.044,280.224 L467.364,282.888 L467.364,277.56 L463.044,280.224 Z M457.932,277.056 L462.468,279.864 L467.148,276.984 L462.54,274.176 L457.932,277.056 Z M468.156,275.76 L472.764,278.568 L477.372,275.76 L472.764,272.952 L468.156,275.76 Z M452.964,273.96 L457.428,276.768 L462.036,273.888 L457.428,271.008 L453.396,273.528 L452.964,273.96 Z M457.932,270.648 L467.364,276.48 L467.364,275.904 L457.932,270.072 L457.932,270.648 Z M468.012,268.272 L468.012,275.256 L472.404,272.448 L472.404,265.536 L468.012,268.272 Z M452.676,266.832 L452.676,273.312 L457.284,270.504 L457.284,269.64 L452.676,266.832 Z M463.044,265.032 L467.652,267.84 L472.188,265.032 L467.652,262.224 L463.044,265.032 Z M457.932,261.792 L462.54,264.672 L467.148,261.792 L462.54,258.984 L457.932,261.792 Z M452.82,258.696 L457.428,261.504 L462.036,258.696 L457.428,255.816 L452.82,258.696 Z M447.78,255.456 L452.388,258.264 L456.996,255.456 L452.388,252.648 L447.78,255.456 Z M505.398,306.288 L505.254,300.312 L500.502,303.192 L494.958,299.88 L494.958,294.048 L490.35,296.856 L485.022,293.616 L485.022,255.384 L490.278,252.072 L515.91,267.984 L515.91,306.36 L510.654,309.528 L505.398,306.288 Z M511.014,301.896 L511.014,308.592 L515.478,305.928 L515.406,299.16 L511.014,301.896 Z M500.862,295.488 L500.862,302.472 L505.254,299.664 L505.254,292.752 L500.862,295.488 Z M511.014,294.192 L511.014,301.176 L515.478,298.368 L515.406,291.456 L511.014,294.192 Z M490.71,289.152 L490.71,295.992 L494.958,293.4 L494.958,286.488 L490.71,289.152 Z M500.862,287.856 L500.862,294.84 L505.254,292.104 L505.254,285.12 L500.862,287.856 Z M511.014,286.632 L511.014,293.616 L515.406,290.88 L515.406,283.896 L511.014,286.632 Z M490.71,281.448 L490.71,288.432 L494.958,285.84 L494.958,278.856 L490.71,281.448 Z M500.862,280.296 L500.862,287.28 L505.254,284.544 L505.254,277.56 L500.862,280.296 Z M511.014,279.144 L511.014,286.056 L515.406,283.32 L515.406,276.408 L511.014,279.144 Z M490.71,273.96 L490.71,280.872 L494.958,278.208 L494.958,271.224 L490.71,273.96 Z M500.862,273.24 L500.862,279.648 L505.254,276.912 L505.254,275.976 L500.862,273.24 Z M511.014,271.44 L511.014,278.424 L515.478,275.616 L515.406,268.704 L511.014,271.44 Z M490.566,266.832 L490.566,273.24 L494.958,270.648 L494.958,269.568 L490.566,266.832 Z M506.046,268.2 L510.654,271.008 L515.262,268.2 L510.654,265.32 L506.046,268.2 Z M501.006,265.032 L505.614,267.912 L510.078,265.032 L505.614,262.224 L501.006,265.032 Z M495.894,261.864 L500.43,264.744 L505.038,261.864 L500.502,258.984 L495.894,261.864 Z M490.782,258.696 L495.39,261.504 L499.998,258.696 L495.39,255.888 L490.782,258.696 Z M485.886,255.672 L490.278,258.336 L494.886,255.528 L490.35,252.648 L485.886,255.384 L485.886,255.672 Z M523.56,293.544 L523.56,255.312 L528.888,252.072 L554.592,267.984 L554.592,275.832 L549.264,279.144 L534.36,270 L534.36,270.576 L554.592,283.176 L554.592,291.024 L549.264,294.336 L534.36,285.264 L534.36,285.768 L554.592,298.368 L554.592,306.288 L549.336,309.528 L523.56,293.544 Z M549.696,301.752 L549.696,308.664 L554.088,306 L554.088,299.088 L549.696,301.752 Z M544.728,298.512 L549.336,301.392 L553.944,298.512 L549.264,295.632 L544.728,298.512 Z M539.616,295.416 L544.152,298.224 L548.76,295.344 L544.152,292.536 L539.616,295.416 Z M534.504,292.176 L539.04,295.056 L543.648,292.176 L539.04,289.368 L534.504,292.176 Z M549.696,286.56 L549.696,293.544 L554.088,290.808 L554.088,283.824 L549.696,286.56 Z M529.608,289.224 L533.928,291.888 L538.392,289.152 L538.392,288.864 L534,286.128 L529.608,288.864 L529.608,289.224 Z M529.32,282.024 L529.32,288.432 L533.712,285.768 L533.712,284.76 L529.32,282.024 Z M544.656,283.32 L549.264,286.128 L553.872,283.32 L549.264,280.44 L544.656,283.32 Z M539.544,280.224 L544.152,282.96 L548.76,280.152 L544.152,277.344 L539.544,280.224 Z M534.504,276.984 L539.04,279.864 L543.648,276.984 L539.04,274.176 L534.504,276.984 Z M549.696,271.368 L549.696,278.352 L554.088,275.616 L554.088,268.632 L549.696,271.368 Z M529.392,273.816 L533.928,276.696 L538.392,273.96 L538.392,273.744 L534,271.008 L529.392,273.816 Z M529.32,266.832 L529.32,273.24 L533.712,270.504 L533.712,269.568 L529.32,266.832 Z M544.656,268.128 L549.264,270.936 L553.872,268.128 L549.192,265.248 L544.656,268.128 Z M539.544,264.96 L544.152,267.84 L548.688,264.96 L544.152,262.152 L539.544,264.96 Z M534.504,261.792 L539.04,264.6 L543.648,261.792 L539.04,258.912 L534.504,261.792 Z M529.392,258.624 L534,261.504 L538.536,258.624 L533.928,255.744 L529.392,258.624 Z M524.28,255.456 L528.888,258.336 L533.496,255.456 L528.96,252.576 L524.28,255.456 Z M581.754,306.216 L581.754,298.656 L576.858,295.632 L576.714,287.928 L572.322,285.264 L572.25,293.472 L566.85,296.856 L561.522,293.616 L561.522,255.24 L566.85,252.072 L572.322,255.456 L572.322,263.016 L577.362,266.256 L577.362,273.816 L581.754,276.48 L581.754,267.984 L587.154,264.744 L592.41,267.912 L592.554,278.64 L592.554,306.216 L587.154,309.528 L581.754,306.216 Z M587.658,301.752 L587.658,308.664 L592.05,305.928 L592.05,298.944 L587.658,301.752 Z M587.514,294.192 L587.514,301.176 L592.05,298.368 L592.05,291.384 L587.514,294.192 Z M567.282,289.152 L567.282,296.064 L571.602,293.328 L571.53,286.488 L567.282,289.152 Z M587.514,286.632 L587.514,293.616 L592.05,290.736 L592.05,283.824 L587.514,286.632 Z M577.434,287.784 L581.754,290.448 L581.754,285.048 L577.434,287.784 Z M567.282,281.448 L567.282,288.432 L571.458,285.84 L571.458,278.856 L567.282,281.448 Z M577.362,280.296 L577.362,287.208 L581.754,284.472 L581.754,277.56 L577.362,280.296 Z M587.514,279.072 L587.514,286.056 L592.05,283.176 L592.05,276.192 L587.514,279.072 Z M567.282,274.464 L567.282,280.872 L571.458,278.208 L571.458,277.056 L567.282,274.464 Z M572.466,276.984 L577.002,279.864 L581.61,276.984 L577.002,274.176 L572.466,276.984 Z M587.514,271.44 L587.514,278.352 L591.906,275.616 L591.906,268.704 L587.514,271.44 Z M572.322,269.496 L572.322,276.408 L576.714,273.672 L576.714,266.688 L572.322,269.496 Z M582.618,268.128 L587.226,270.936 L591.69,268.128 L587.154,265.32 L582.618,268.128 Z M567.282,266.256 L571.89,269.136 L576.498,266.256 L571.818,263.376 L567.282,266.256 Z M567.138,258.768 L567.138,265.68 L571.674,262.872 L571.674,255.96 L567.138,258.768 Z M562.386,255.384 L566.85,258.336 L571.314,255.528 L566.85,252.72 L562.386,255.384 Z" id="KARMEN-Copy"></path>
        </g>
    </g>
</svg>