<?xml version="1.0" encoding="UTF-8"?>
<svg width="561px" height="324px" viewBox="0 0 561 324" version="1.1" xmlns="http://www.w3.org/2000/svg" xmlns:xlink="http://www.w3.org/1999/xlink">
    <!-- Generator: Sketch 57.1 (83088) - https://sketch.com -->
    <title>3d-arena-logo</title>
    <desc>Created with Sketch.</desc>
    <g id="Page-1" stroke="none" stroke-width="1" fill="none" fill-rule="evenodd">
        <g id="3d-arena-logo" transform="translate(-1.000000, -2.000000)" fill-rule="nonzero">
            <g id="g10" transform="translate(282.000000, 163.528750) scale(-1, 1) rotate(-180.000000) translate(-282.000000, -163.528750) translate(0.000000, 0.528750)">
                <g id="g849" transform="translate(0.657865, 0.318626)">
                    <g id="g5583" fill="#3D3D3D">
                        <g id="g22" transform="translate(0.305125, 0.622500)">
                            <path d="M57.5,66.25 C57.5,56.37375 52.5625,49.56375 42.68875,45.8075 C50.44125,43.93625 55.78875,39.8525 58.72625,33.5675 C59.94875,30.96 60.56,27.735 60.56,23.90375 C60.56,20.06625 59.74375,16.685 58.11125,13.74125 C56.47875,10.805 54.235,8.35875 51.38,6.39875 C45.585,2.40375 38.07875,0.40125 28.85875,0.40125 C19.88375,0.40125 11.36,2.035 3.28125,5.29875 C1.15625,6.27625 0.0975,7.82625 0.0975,9.95 C0.0975,11.255 0.545,12.43625 1.4425,13.5025 C2.34125,14.56 3.34125,15.0925 4.44125,15.0925 C5.545,15.0925 6.91,14.765 8.5425,14.11 C13.6,12.0675 19.67875,11.05 26.77875,11.05 C36.97875,11.05 43.87125,13.37875 47.46375,18.03 C48.76875,19.745 49.42375,21.94375 49.42375,24.635 C49.42375,34.92125 40.405,40.0575 22.37375,40.0575 L20.41625,40.0575 C19.0275,40.0575 17.82125,40.56875 16.80375,41.5875 C15.7825,42.60375 15.27375,43.81375 15.27375,45.2 C15.27375,46.58625 15.7825,47.7875 16.80375,48.8125 C17.82125,49.83 19.0275,50.3425 20.41625,50.3425 L21.1475,50.3425 C37.95625,50.3425 46.36375,55.27375 46.36375,65.15 C46.36375,68.9825 44.7925,72.06125 41.65125,74.39125 C38.51,76.7125 33.6325,77.88125 27.025,77.88125 C20.335,77.88125 14.01,76.52875 8.055,73.8375 C7.39875,73.51 6.565,73.34625 5.545,73.34625 C4.52375,73.34625 3.5675,73.75625 2.66625,74.575 C1.77125,75.38875 1.32,76.61125 1.32,78.24375 C1.32,79.875 2.13625,81.13875 3.7725,82.04125 C11.43875,86.2 19.76125,88.28375 28.73625,88.28375 C37.71,88.28375 44.7525,86.36375 49.85,82.52625 C54.94875,78.69375 57.5,73.26375 57.5,66.25" id="path24"></path>
                        </g>
                        <g id="g26" transform="translate(75.573750, 1.406250)">
                            <path d="M30,11.25 C40.11875,11.25 48.2775,14.2275 54.47875,20.1825 C60.51625,26.13875 63.535,33.9325 63.535,43.55625 C63.535,53.18625 60.51625,60.97875 54.47875,66.935 C48.2775,72.89125 40.11875,75.8675 30,75.8675 L12.375,75.8675 L12.375,11.25 L30,11.25 Z M31.34625,86.27625 C44.9725,86.27625 55.825,81.7 63.90125,72.5625 C67.49375,68.5675 70.16375,64.01875 71.91875,58.91625 C73.67375,53.82125 74.54875,48.69875 74.54875,43.55625 C74.54875,38.41875 73.67375,33.2975 71.91875,28.195 C70.16375,23.09875 67.49375,18.55125 63.90125,14.54875 C55.825,5.41 44.9725,0.84125 31.34625,0.84125 L6.7475,0.84125 C5.19375,0.84125 3.88625,1.37375 2.8275,2.4325 C1.76875,3.49125 1.23625,4.8025 1.23625,6.3525 L1.23625,80.6425 C1.23625,82.1925 1.76875,83.5175 2.8275,84.62375 C3.88625,85.72375 5.19375,86.27625 6.7475,86.27625 L31.34625,86.27625 Z" id="path28"></path>
                        </g>
                        <g id="g30" transform="translate(152.070875, 0.564000)">
                            <path d="M56.25,33.75 L39.72875,73.5275 L23.20625,33.75 L56.25,33.75 Z M78.65125,9.0325 C79.055,8.0475 79.26,7.01 79.26,5.91125 C79.26,4.805 78.77125,3.725 77.79125,2.6675 C76.815,1.6075 75.26375,1.075 73.14,1.075 C71.02,1.075 69.4725,2.215 68.49,4.505 L60.535,23.59375 L18.92375,23.59375 L10.9675,4.505 C9.9875,2.215 8.4375,1.075 6.31625,1.075 C4.1925,1.075 2.64125,1.6075 1.665,2.6675 C0.68375,3.725 0.19625,4.805 0.19625,5.91125 C0.19625,7.01 0.3975,8.0475 0.8075,9.0325 L32.0175,82.7075 C33.48625,86.05375 35.8525,87.7275 39.11625,87.7275 L40.3425,87.7275 C43.6,87.7275 45.97,86.05375 47.43875,82.7075 L78.65125,9.0325 Z" id="path32"></path>
                        </g>
                        <g id="g34" transform="translate(240.958250, 1.068125)">
                            <path d="M33.75,45 C40.6,45 46.12875,46.345 50.33375,49.03625 C54.53375,51.7275 56.6375,55.68875 56.6375,60.9075 C56.6375,65.805 55.005,69.47875 51.74,71.92375 C47.82375,74.6975 41.62125,76.0825 33.135,76.0825 L11.5925,76.0825 L11.5925,45 L33.75,45 Z M67.03875,6.07625 C67.03875,4.525 66.50625,3.22125 65.4475,2.1625 C64.38625,1.10375 63.04,0.57125 61.41125,0.57125 C59.775,0.57125 58.45125,1.08375 57.42875,2.10125 C56.41125,3.11875 55.9,4.44375 55.9,6.07625 L55.9,9.75125 C55.9,16.355 55.16875,21.21125 53.7,24.31125 C52.23125,27.41375 50.23125,29.885 47.7,31.71625 C45.17,33.55375 41.58125,34.475 36.9325,34.475 L11.5925,34.475 L11.5925,6.07625 C11.5925,4.525 11.04375,3.22125 9.94,2.1625 C8.84125,1.10375 7.51625,0.57125 5.965,0.57125 C4.415,0.57125 3.1075,1.10375 2.04875,2.1625 C0.98625,3.22125 0.4575,4.525 0.4575,6.07625 L0.4575,80.98 C0.4575,82.53 0.98625,83.85625 2.04875,84.9625 C3.1075,86.0625 4.415,86.615 5.965,86.615 L34.48,86.615 C45.66125,86.615 54.1025,84.245 59.81875,79.51125 C65.12,75.025 67.77375,69.11 67.77375,61.7675 C67.77375,57.035 66.445,52.63 63.795,48.545 C61.145,44.4675 57.125,41.48875 51.74,39.61125 C57.61375,38.06 61.855,33.82 64.47125,26.8875 C66.18125,22.23625 67.03875,17.175 67.03875,11.70375 L67.03875,6.07625 Z" id="path36"></path>
                        </g>
                        <g id="g38" transform="translate(324.404250, 1.126750)">
                            <path d="M58.75,10 C59.77375,8.975 60.28,7.7325 60.28,6.26375 C60.28,4.795 59.77375,3.57125 58.75,2.58875 C57.7325,1.6125 56.48875,1.12 55.02125,1.12 L5.94,1.12 C4.39,1.12 3.0825,1.6525 2.02375,2.7125 C0.9625,3.77125 0.4325,5.08125 0.4325,6.6325 L0.4325,80.92125 C0.4325,82.4725 0.9625,83.7975 2.02375,84.90375 C3.0825,86.00375 4.39,86.55625 5.94,86.55625 L55.02125,86.55625 C56.48875,86.55625 57.7325,86.04375 58.75,85.02625 C59.77375,84.00125 60.28,82.75875 60.28,81.29 C60.28,79.82125 59.77375,78.6 58.75,77.61625 C57.7325,76.64 56.48875,76.1475 55.02125,76.1475 L11.56875,76.1475 L11.56875,49.10125 L50.615,49.10125 C52.08375,49.10125 53.32625,48.58875 54.345,47.57125 C55.3625,46.54625 55.87375,45.30375 55.87375,43.835 C55.87375,42.3675 55.3625,41.14375 54.345,40.1675 C53.32625,39.18375 52.08375,38.69875 50.615,38.69875 L11.56875,38.69875 L11.56875,11.53 L55.02125,11.53 C56.48875,11.53 57.7325,11.01625 58.75,10" id="path40"></path>
                        </g>
                        <g id="g42" transform="translate(395.878875, 0.791000)">
                            <path d="M70,87.5 C71.55,87.5 72.8825,86.9475 73.9825,85.8475 C75.08125,84.7475 75.635,83.4225 75.635,81.8725 L75.635,8.805 C75.635,6.59875 74.835,4.72 73.245,3.17 C71.6525,1.62 69.76125,0.84875 67.555,0.84875 L66.08625,0.84875 C63.395,0.84875 61.23,1.94875 59.5975,4.15375 L12.23125,72.57 L12.23125,6.35375 C12.23125,4.8025 11.68625,3.49875 10.57875,2.44 C9.48,1.38 8.15375,0.84875 6.60375,0.84875 C5.05375,0.84875 3.74875,1.38 2.6825,2.44 C1.625,3.49875 1.0925,4.8025 1.0925,6.35375 L1.0925,79.42 C1.0925,81.62625 1.87125,83.525 3.42125,85.11625 C4.9725,86.7075 6.85,87.5 9.04875,87.5 L10.64125,87.5 C13.1675,87.5 15.415,86.2775 17.375,83.83125 L64.495,15.77875 L64.495,81.8725 C64.495,83.4225 65.0275,84.7475 66.08625,85.8475 C67.145,86.9475 68.45,87.5 70,87.5" id="path44"></path>
                        </g>
                        <g id="g46" transform="translate(481.391625, 0.564000)">
                            <path d="M56.25,33.75 L39.72125,73.5275 L23.2,33.75 L56.25,33.75 Z M78.645,9.0325 C79.055,8.0475 79.2525,7.01 79.2525,5.91125 C79.2525,4.805 78.76875,3.725 77.785,2.6675 C76.8075,1.6075 75.2575,1.075 73.13375,1.075 C71.01625,1.075 69.465,2.215 68.48875,4.505 L60.5325,23.59375 L18.9175,23.59375 L10.96,4.505 C9.9825,2.215 8.4325,1.075 6.30875,1.075 C4.185,1.075 2.64125,1.6075 1.6575,2.6675 C0.68125,3.725 0.18875,4.805 0.18875,5.91125 C0.18875,7.01 0.39375,8.0475 0.805,9.0325 L32.01,82.7075 C33.47875,86.05375 35.84875,87.7275 39.11375,87.7275 L40.33625,87.7275 C43.60125,87.7275 45.96375,86.05375 47.43125,82.7075 L78.645,9.0325 Z" id="path48"></path>
                        </g>
                    </g>
                    <g id="g50" transform="translate(154.099125, 128.269000)" fill="#4DB2FF">
                        <path d="M135,85 L170.96875,100.97 L159.84,65.96 L135,85 Z M95.66875,66.69375 L84.77125,100.97 L119.99125,85.335 L95.66875,66.69375 Z M90.20875,50.445 L90.20875,8.56875 L60.94875,15.915 L90.20875,50.445 Z M53.805,61.875 L51.73625,19.68125 L29.3575,32.86375 L53.805,61.875 Z M88.17375,59.635 L59.5425,25.8425 L61.60125,67.7825 L88.17375,59.635 Z M63.66125,74.98875 L77.4575,99.26125 L87.4975,67.6825 L63.66125,74.98875 Z M33.165,94.83 L70.8725,102.84625 L56.87125,78.2075 L33.165,94.83 Z M25.3075,91.19 L48.915,74.635 L12.545,66.825 L25.3075,91.19 Z M19.8025,96.8325 L8.07125,74.4375 L8.07125,123.0175 L19.8025,96.8325 Z M32.90125,117.63375 C33.34625,117.32625 33.855,117.14875 34.3875,117.05375 C42.63125,113.80875 52.14125,111.015 62.67,108.76375 L26.14625,100.99875 L14.17375,127.71875 C19.21125,124.04 25.50125,120.65 32.90125,117.63375 L32.90125,117.63375 Z M10.58875,58.74375 L48.17,66.81375 L24.01625,38.15625 L10.58875,58.74375 Z M158.98625,103.8475 L127.8725,90.03375 L97.005,103.735 C106.67875,102.895 116.80375,102.43875 127.275,102.43875 C138.26375,102.43875 148.8675,102.9375 158.98625,103.8475 L158.98625,103.8475 Z M241.86125,128.36625 L229.6025,100.99875 L192.77875,108.82625 C214.09,113.385 231.1725,120.1625 241.86125,128.36625 L241.86125,128.36625 Z M246.4825,76.715 L235.94625,96.8325 L246.4825,120.355 L246.4825,76.715 Z M201.94,61.8775 L225.995,33.335 L203.97625,20.365 L201.94,61.8775 Z M164.345,51.8525 L194.5875,16.16125 L164.345,8.56875 L164.345,51.8525 Z M194.1425,67.7825 L196.20375,25.8425 L167.5725,59.635 L194.1425,67.7825 Z M192.085,74.98875 L168.24875,67.6825 L178.28875,99.26125 L192.085,74.98875 Z M198.87375,78.2075 L184.86875,102.84625 L222.5825,94.83 L198.87375,78.2075 Z M243.2,66.825 L206.83,74.635 L230.4425,91.19 L243.2,66.825 Z M231.05625,38.95625 L207.575,66.81375 L244.11125,58.9675 L231.05625,38.95625 Z M250.52125,149.95625 C248.59875,150.1325 246.83,148.73875 246.53,146.80625 C243.725,129.0725 197.33625,109.93125 127.275,109.93125 C94.51125,109.93125 66.71375,114.205 46.21,120.6475 C48.52875,121.375 50.90625,122.08 53.37125,122.74125 C74.6875,128.44875 100.24125,131.46625 127.275,131.46625 C144.90625,131.46625 161.9025,130.1825 177.79625,127.64875 C179.19625,127.42625 180.57625,127.195 181.94625,126.955 C184.00125,126.595 185.9275,127.955 186.285,129.99125 C186.6475,132.0275 185.2875,133.97125 183.25,134.33125 C181.84,134.5825 180.4125,134.81875 178.97125,135.04875 C162.69125,137.6425 145.29875,138.95875 127.275,138.95875 C99.6,138.95875 73.3725,135.8525 51.4325,129.9775 C45.5375,128.3975 40.02875,126.61375 34.985,124.68625 C27.43125,127.79625 21.30125,131.22875 16.8275,134.8275 C35.4225,149.865 78.7925,159.78875 127.275,159.78875 C162.835,159.78875 196.41875,154.4075 219.41375,145.02625 C221.3175,144.245 223.51375,145.165 224.2975,147.08 C225.08,148.995 224.1575,151.1825 222.2425,151.9625 C198.385,161.6975 163.77125,167.28125 127.275,167.28125 C76.815,167.28125 31.2825,156.47125 11.51375,140.125 C9.2525,143.0675 8.07125,146.06 8.07125,149.01875 C8.075,167.895 55.97,188.1075 127.275,188.1075 C166.59125,188.1075 203.53125,181.47125 226.0875,170.35625 C228.0675,169.38125 229.9325,168.37125 231.63375,167.35625 C232.82875,166.64125 233.9625,165.915 235.03375,165.1725 C236.72875,163.99375 239.065,164.41 240.24625,166.11625 C241.42875,167.815 241.00375,170.15 239.3025,171.32875 C238.10125,172.16375 236.82375,172.9825 235.47875,173.78625 C233.60375,174.90625 231.5575,176.01375 229.4,177.07625 C205.86375,188.675 167.68375,195.59875 127.275,195.59875 C56.23625,195.59875 0.58625,175.1425 0.57875,149.0225 L0.57875,149.02125 L0.57875,61.48625 C0.57875,61.375 0.63375,61.28125 0.64125,61.17375 C0.66125,60.91875 0.71875,60.68 0.79125,60.4325 C0.86625,60.18625 0.9475,59.96125 1.0675,59.74125 C1.11875,59.64375 1.125,59.535 1.18625,59.43875 L20.97625,29.1075 L52.705,10.4175 L93.04375,0.13375 C93.3475,0.05625 93.6475,0.0225 93.95125,0.0225 C93.95125,0.0225 93.95125,0.01875 93.955,0.01875 L93.95875,0.01875 C94.42625,0.01875 94.87375,0.12875 95.29625,0.29125 C95.44375,0.34625 95.56375,0.435 95.7,0.50625 C95.96,0.6475 96.205,0.80125 96.4275,0.99875 C96.5575,1.11125 96.66375,1.2375 96.775,1.37125 C96.95375,1.5825 97.1075,1.80375 97.2375,2.05375 C97.32125,2.2175 97.39375,2.3775 97.455,2.55625 C97.4925,2.66125 97.56125,2.7425 97.58875,2.8525 C97.62625,3.01 97.59125,3.16 97.60875,3.31375 C97.63,3.4675 97.70125,3.60375 97.70125,3.76875 L97.70125,58.8125 L127.275,81.48125 L156.85125,58.8125 L156.85125,3.76875 C156.85125,3.60375 156.92375,3.4675 156.945,3.31375 C156.96125,3.16 156.92375,3.01 156.965,2.8525 C156.9925,2.7425 157.06,2.66125 157.095,2.55625 C157.15625,2.3775 157.23125,2.2175 157.31875,2.05375 C157.45,1.80375 157.6,1.5825 157.7775,1.37125 C157.89,1.2375 157.995,1.11125 158.12625,0.99875 C158.3475,0.80125 158.59,0.6475 158.85375,0.51 C158.98875,0.435 159.10875,0.34625 159.25625,0.29125 C159.68,0.12875 160.1275,0.01875 160.595,0.01875 L160.59875,0.01875 C160.59875,0.01875 160.60125,0.0225 160.605,0.0225 C160.90625,0.0225 161.20625,0.05625 161.51,0.13375 L200.8575,10.01125 L233.57625,29.1075 L253.36625,59.43875 C253.3725,59.45 253.3725,59.45875 253.37625,59.47 C253.44125,59.56875 253.46875,59.69 253.5225,59.79625 C253.595,59.93 253.66375,60.06 253.715,60.20375 C253.75625,60.31625 253.7925,60.4225 253.825,60.535 C253.8375,60.59375 253.875,60.64 253.88875,60.7 C253.89125,60.7175 253.885,60.735 253.88875,60.75375 C253.91625,60.89375 253.89875,61.03 253.90875,61.17375 C253.92,61.28125 253.975,61.375 253.975,61.48625 L253.975,146.2225 C253.975,148.1775 252.4725,149.8025 250.52125,149.95625 L250.52125,149.95625 Z" id="path52"></path>
                    </g>
                </g>
            </g>
        </g>
    </g>
</svg>