<?xml version="1.0" encoding="UTF-8" standalone="no"?>
<svg
   xmlns:dc="http://purl.org/dc/elements/1.1/"
   xmlns:cc="http://creativecommons.org/ns#"
   xmlns:rdf="http://www.w3.org/1999/02/22-rdf-syntax-ns#"
   xmlns:svg="http://www.w3.org/2000/svg"
   xmlns="http://www.w3.org/2000/svg"
   viewBox="0 0 134.88134 172.524"
   height="172.524"
   width="134.88133"
   xml:space="preserve"
   id="svg29"
   version="1.1"><metadata
     id="metadata35"><rdf:RDF><cc:Work
         rdf:about=""><dc:format>image/svg+xml</dc:format><dc:type
           rdf:resource="http://purl.org/dc/dcmitype/StillImage" /><dc:title></dc:title></cc:Work></rdf:RDF></metadata><defs
     id="defs33" /><g
     transform="matrix(1.3333333,0,0,-1.3333333,-7.7759998,204.64119)"
     id="g37"><g
       transform="translate(41.124,24.0879)"
       id="g39"><path
         id="path41"
         style="fill:#ffffff;fill-opacity:1;fill-rule:nonzero;stroke:none"
         d="m 0,0 v 7.061 h -7.059 v 7.056 h -7.055 v 7.059 h -7.06 v 14.117 h -7.059 V 49.41 h -7.059 v 37.635 h 7.059 v 7.059 h 7.059 l 0.001,14.115 h 7.057 v 7.059 H 0.002 v 7.058 H 7.06 v 7.057 h 16.46 v -7.057 h 7.058 v -7.058 h 14.116 v -7.059 h 7.058 V 94.104 h 7.06 v -7.059 h 7.057 V 49.41 H 58.812 V 35.293 h -7.06 L 51.75,21.176 H 44.694 L 44.692,14.117 H 37.636 L 37.635,7.061 H 30.578 V 0 Z" /></g><path
       id="path43"
       style="fill:#d82326;fill-opacity:1;fill-rule:nonzero;stroke:none"
       d="m 74.06,42.906 h -7.058 v 7.059 h 7.058 z" /><path
       id="path45"
       style="fill:#9e1b20;fill-opacity:1;fill-rule:nonzero;stroke:none"
       d="m 38.766,106.432 h -7.058 v 7.059 h 7.058 z" /><path
       id="path47"
       style="fill:#9e1b20;fill-opacity:1;fill-rule:nonzero;stroke:none"
       d="m 45.825,106.432 h -7.06 v 7.059 h 7.06 z" /><path
       id="path49"
       style="fill:#9e1b20;fill-opacity:1;fill-rule:nonzero;stroke:none"
       d="m 52.882,99.374 h -7.058 v 7.059 h 7.058 z" /><path
       id="path51"
       style="fill:#9e1b20;fill-opacity:1;fill-rule:nonzero;stroke:none"
       d="M 38.768,49.965 H 31.71 v 7.059 h 7.058 z" /><path
       id="path53"
       style="fill:#9e1b20;fill-opacity:1;fill-rule:nonzero;stroke:none"
       d="m 31.71,64.08 h -7.059 v 7.059 h 7.059 z" /><path
       id="path55"
       style="fill:#9e1b20;fill-opacity:1;fill-rule:nonzero;stroke:none"
       d="m 38.766,57.023 h -7.058 v 7.057 h 7.058 z" /><path
       id="path57"
       style="fill:#9e1b20;fill-opacity:1;fill-rule:nonzero;stroke:none"
       d="m 45.826,49.963 h -7.059 v 7.059 h 7.059 z" /><path
       id="path59"
       style="fill:#9e1b20;fill-opacity:1;fill-rule:nonzero;stroke:none"
       d="m 52.885,42.906 h -7.059 v 7.059 h 7.059 z" /><path
       id="path61"
       style="fill:#9e1b20;fill-opacity:1;fill-rule:nonzero;stroke:none"
       d="m 45.825,42.906 h -7.06 v 7.059 h 7.06 z" /><path
       id="path63"
       style="fill:#9e1b20;fill-opacity:1;fill-rule:nonzero;stroke:none"
       d="m 59.941,35.848 h -7.058 v 7.059 h 7.058 z" /><path
       id="path65"
       style="fill:#9e1b20;fill-opacity:1;fill-rule:nonzero;stroke:none"
       d="m 67.002,35.848 h -7.059 v 7.059 h 7.059 z" /><path
       id="path67"
       style="fill:#9e1b20;fill-opacity:1;fill-rule:nonzero;stroke:none"
       d="m 74.06,42.906 h -7.058 v 7.059 h 7.058 z" /><path
       id="path69"
       style="fill:#9e1b20;fill-opacity:1;fill-rule:nonzero;stroke:none"
       d="m 52.882,35.848 h -7.058 v 7.059 h 7.058 z" /><path
       id="path71"
       style="fill:#9e1b20;fill-opacity:1;fill-rule:nonzero;stroke:none"
       d="m 88.176,106.432 h -7.058 v 7.059 h 7.058 z" /><path
       id="path73"
       style="fill:#9e1b20;fill-opacity:1;fill-rule:nonzero;stroke:none"
       d="m 88.176,99.374 h -7.058 v 7.059 h 7.058 z" /><path
       id="path75"
       style="fill:#9e1b20;fill-opacity:1;fill-rule:nonzero;stroke:none"
       d="m 88.176,64.08 h -7.058 v 7.059 h 7.058 z" /><path
       id="path77"
       style="fill:#9e1b20;fill-opacity:1;fill-rule:nonzero;stroke:none"
       d="m 88.176,71.139 h -7.058 v 7.059 h 7.058 z" /><path
       id="path79"
       style="fill:#9e1b20;fill-opacity:1;fill-rule:nonzero;stroke:none"
       d="m 95.234,78.198 h -7.059 v 7.059 h 7.059 z" /><path
       id="path81"
       style="fill:#9e1b20;fill-opacity:1;fill-rule:nonzero;stroke:none"
       d="m 81.118,106.432 h -7.06 v 7.059 h 7.06 z" /><path
       id="path83"
       style="fill:#9e1b20;fill-opacity:1;fill-rule:nonzero;stroke:none"
       d="m 31.71,85.256 h -7.06 v 28.234 h 7.06 z" /><path
       id="path85"
       style="fill:#9e1b20;fill-opacity:1;fill-rule:nonzero;stroke:none"
       d="m 24.649,78.198 h -7.058 v 28.234 h 7.058 z" /><path
       id="path87"
       style="fill:#231f20;fill-opacity:1;fill-rule:nonzero;stroke:none"
       d="M 38.768,113.491 H 31.71 v 7.059 h 7.058 z" /><path
       id="path89"
       style="fill:#231f20;fill-opacity:1;fill-rule:nonzero;stroke:none"
       d="m 31.71,120.549 h -7.059 v 7.059 h 7.059 z" /><path
       id="path91"
       style="fill:#231f20;fill-opacity:1;fill-rule:nonzero;stroke:none"
       d="m 31.71,113.491 h -7.06 v 7.059 h 7.06 z" /><path
       id="path93"
       style="fill:#231f20;fill-opacity:1;fill-rule:nonzero;stroke:none"
       d="m 24.65,106.432 h -7.06 v 7.059 h 7.06 z" /><path
       id="path95"
       style="fill:#231f20;fill-opacity:1;fill-rule:nonzero;stroke:none"
       d="m 17.592,99.374 h -7.061 v 7.059 h 7.061 z" /><path
       id="path97"
       style="fill:#231f20;fill-opacity:1;fill-rule:nonzero;stroke:none"
       d="m 17.591,92.317 h -7.06 v 7.057 h 7.06 z" /><path
       id="path99"
       style="fill:#231f20;fill-opacity:1;fill-rule:nonzero;stroke:none"
       d="m 17.591,85.256 h -7.06 v 7.061 h 7.06 z" /><path
       id="path101"
       style="fill:#231f20;fill-opacity:1;fill-rule:nonzero;stroke:none"
       d="M 24.649,71.139 H 17.59 v 7.059 h 7.059 z" /><path
       id="path103"
       style="fill:#231f20;fill-opacity:1;fill-rule:nonzero;stroke:none"
       d="m 17.592,78.198 h -7.061 v 7.059 h 7.061 z" /><path
       id="path105"
       style="fill:#231f20;fill-opacity:1;fill-rule:nonzero;stroke:none"
       d="m 24.65,64.08 h -7.06 v 7.059 h 7.06 z" /><path
       id="path107"
       style="fill:#231f20;fill-opacity:1;fill-rule:nonzero;stroke:none"
       d="M 31.71,57.023 H 24.649 V 64.08 H 31.71 Z" /><path
       id="path109"
       style="fill:#231f20;fill-opacity:1;fill-rule:nonzero;stroke:none"
       d="m 31.71,49.965 h -7.06 v 7.059 h 7.06 z" /><path
       id="path111"
       style="fill:#231f20;fill-opacity:1;fill-rule:nonzero;stroke:none"
       d="M 38.768,42.906 H 31.71 v 7.059 h 7.058 z" /><path
       id="path113"
       style="fill:#231f20;fill-opacity:1;fill-rule:nonzero;stroke:none"
       d="m 45.826,35.848 h -7.061 v 7.059 h 7.061 z" /><path
       id="path115"
       style="fill:#231f20;fill-opacity:1;fill-rule:nonzero;stroke:none"
       d="m 52.884,28.789 h -7.06 v 7.059 h 7.06 z" /><path
       id="path117"
       style="fill:#231f20;fill-opacity:1;fill-rule:nonzero;stroke:none"
       d="m 81.118,113.491 h 7.058 v 7.059 h -7.058 z" /><path
       id="path119"
       style="fill:#231f20;fill-opacity:1;fill-rule:nonzero;stroke:none"
       d="m 59.943,28.789 h -7.06 v 7.059 h 7.06 z" /><path
       id="path121"
       style="fill:#231f20;fill-opacity:1;fill-rule:nonzero;stroke:none"
       d="m 95.234,99.374 h 7.059 v 7.059 h -7.059 z" /><path
       id="path123"
       style="fill:#231f20;fill-opacity:1;fill-rule:nonzero;stroke:none"
       d="m 88.176,106.432 h 7.06 v 7.059 h -7.06 z" /><path
       id="path125"
       style="fill:#231f20;fill-opacity:1;fill-rule:nonzero;stroke:none"
       d="m 95.235,92.317 h 7.058 v 7.057 h -7.058 z" /><path
       id="path127"
       style="fill:#231f20;fill-opacity:1;fill-rule:nonzero;stroke:none"
       d="m 95.235,85.256 h 7.059 v 7.061 h -7.059 z" /><path
       id="path129"
       style="fill:#231f20;fill-opacity:1;fill-rule:nonzero;stroke:none"
       d="m 88.176,71.139 h 7.06 v 7.059 h -7.06 z" /><path
       id="path131"
       style="fill:#231f20;fill-opacity:1;fill-rule:nonzero;stroke:none"
       d="m 95.233,78.198 h 7.06 v 7.059 h -7.06 z" /><path
       id="path133"
       style="fill:#231f20;fill-opacity:1;fill-rule:nonzero;stroke:none"
       d="m 88.176,64.08 h 7.06 v 7.059 h -7.06 z" /><path
       id="path135"
       style="fill:#231f20;fill-opacity:1;fill-rule:nonzero;stroke:none"
       d="m 81.118,57.023 h 7.058 v 7.057 h -7.058 z" /><path
       id="path137"
       style="fill:#231f20;fill-opacity:1;fill-rule:nonzero;stroke:none"
       d="m 81.116,49.965 h 7.06 v 7.059 h -7.06 z" /><path
       id="path139"
       style="fill:#231f20;fill-opacity:1;fill-rule:nonzero;stroke:none"
       d="m 74.058,42.906 h 7.061 v 7.059 h -7.061 z" /><path
       id="path141"
       style="fill:#231f20;fill-opacity:1;fill-rule:nonzero;stroke:none"
       d="m 67,35.848 h 7.059 v 7.059 H 67 Z" /><path
       id="path143"
       style="fill:#231f20;fill-opacity:1;fill-rule:nonzero;stroke:none"
       d="m 59.943,28.789 h 7.059 v 7.059 h -7.059 z" /><path
       id="path145"
       style="fill:#231f20;fill-opacity:1;fill-rule:nonzero;stroke:none"
       d="m 52.884,28.789 h 7.06 v 7.059 h -7.06 z" /><path
       id="path147"
       style="fill:#231f20;fill-opacity:1;fill-rule:nonzero;stroke:none"
       d="m 38.768,127.608 h -7.06 v 7.057 h 7.06 z" /><path
       id="path149"
       style="fill:#231f20;fill-opacity:1;fill-rule:nonzero;stroke:none"
       d="m 45.826,127.608 h -7.061 v 7.057 h 7.061 z" /><path
       id="path151"
       style="fill:#231f20;fill-opacity:1;fill-rule:nonzero;stroke:none"
       d="m 52.885,134.665 h -7.059 v 7.061 h 7.059 z" /><path
       id="path153"
       style="fill:#231f20;fill-opacity:1;fill-rule:nonzero;stroke:none"
       d="m 59.944,120.549 h -7.06 v 7.059 h 7.06 z" /><path
       id="path155"
       style="fill:#231f20;fill-opacity:1;fill-rule:nonzero;stroke:none"
       d="m 59.943,141.725 h -7.06 v 7.057 h 7.06 z" /><path
       id="path157"
       style="fill:#231f20;fill-opacity:1;fill-rule:nonzero;stroke:none"
       d="m 67.002,134.665 h -7.061 v 7.061 h 7.061 z" /><path
       id="path159"
       style="fill:#231f20;fill-opacity:1;fill-rule:nonzero;stroke:none"
       d="m 45.826,113.491 h -7.059 v 7.059 h 7.059 z" /><path
       id="path161"
       style="fill:#231f20;fill-opacity:1;fill-rule:nonzero;stroke:none"
       d="m 52.884,106.432 h -7.058 v 7.059 h 7.058 z" /><path
       id="path163"
       style="fill:#231f20;fill-opacity:1;fill-rule:nonzero;stroke:none"
       d="m 59.943,99.374 h -7.06 v 7.059 h 7.06 z" /><path
       id="path165"
       style="fill:#231f20;fill-opacity:1;fill-rule:nonzero;stroke:none"
       d="m 67.002,106.432 h -7.059 v 7.059 h 7.059 z" /><path
       id="path167"
       style="fill:#231f20;fill-opacity:1;fill-rule:nonzero;stroke:none"
       d="m 74.059,113.491 h -7.057 v 7.059 h 7.057 z" /><path
       id="path169"
       style="fill:#231f20;fill-opacity:1;fill-rule:nonzero;stroke:none"
       d="m 81.118,113.491 h -7.06 v 7.059 h 7.06 z" /><path
       id="path171"
       style="fill:#231f20;fill-opacity:1;fill-rule:nonzero;stroke:none"
       d="m 88.176,120.549 h -7.058 v 7.059 h 7.058 z" /><path
       id="path173"
       style="fill:#231f20;fill-opacity:1;fill-rule:nonzero;stroke:none"
       d="m 81.118,127.608 h -7.06 v 7.057 h 7.06 z" /><path
       id="path175"
       style="fill:#231f20;fill-opacity:1;fill-rule:nonzero;stroke:none"
       d="m 74.059,127.608 h -7.057 v 7.057 h 7.057 z" /><path
       id="path177"
       style="fill:#d82326;fill-opacity:1;fill-rule:nonzero;stroke:none"
       d="m 59.941,57.023 h -7.058 v 7.057 h 7.058 z" /><path
       id="path179"
       style="fill:#d82326;fill-opacity:1;fill-rule:nonzero;stroke:none"
       d="m 59.943,42.906 h -7.059 v 7.059 h 7.059 z" /><path
       id="path181"
       style="fill:#d82326;fill-opacity:1;fill-rule:nonzero;stroke:none"
       d="m 45.825,57.023 h -7.06 v 7.057 h 7.06 z" /><path
       id="path183"
       style="fill:#d82326;fill-opacity:1;fill-rule:nonzero;stroke:none"
       d="m 67,42.906 h -7.059 v 7.059 H 67 Z" /><path
       id="path185"
       style="fill:#d82326;fill-opacity:1;fill-rule:nonzero;stroke:none"
       d="m 74.06,49.963 h -7.058 v 7.059 h 7.058 z" /><path
       id="path187"
       style="fill:#d82326;fill-opacity:1;fill-rule:nonzero;stroke:none"
       d="m 81.118,57.023 h -7.06 v 7.057 h 7.06 z" /><path
       id="path189"
       style="fill:#d82326;fill-opacity:1;fill-rule:nonzero;stroke:none"
       d="m 81.118,49.965 h -7.06 v 7.059 h 7.06 z" /><path
       id="path191"
       style="fill:#d82326;fill-opacity:1;fill-rule:nonzero;stroke:none"
       d="m 74.06,106.432 h -7.058 v 7.059 h 7.058 z" /><path
       id="path193"
       style="fill:#d82326;fill-opacity:1;fill-rule:nonzero;stroke:none"
       d="m 67,99.374 h -7.059 v 7.059 H 67 Z" /><path
       id="path195"
       style="fill:#d82326;fill-opacity:1;fill-rule:nonzero;stroke:none"
       d="m 88.176,92.317 h -7.058 v 7.057 h 7.058 z" /><path
       id="path197"
       style="fill:#d82326;fill-opacity:1;fill-rule:nonzero;stroke:none"
       d="m 95.235,92.317 h -7.059 v 7.057 h 7.059 z" /><path
       id="path199"
       style="fill:#d82326;fill-opacity:1;fill-rule:nonzero;stroke:none"
       d="m 95.234,99.374 h -7.059 v 7.059 h 7.059 z" /><path
       id="path201"
       style="fill:#d82326;fill-opacity:1;fill-rule:nonzero;stroke:none"
       d="m 95.234,85.256 h -7.059 v 7.061 h 7.059 z" /><path
       id="path203"
       style="fill:#d82326;fill-opacity:1;fill-rule:nonzero;stroke:none"
       d="m 81.118,99.374 h -7.06 v 7.059 h 7.06 z" /><path
       id="path205"
       style="fill:#d82326;fill-opacity:1;fill-rule:nonzero;stroke:none"
       d="m 88.176,85.256 h -7.058 v 7.061 h 7.058 z" /><path
       id="path207"
       style="fill:#d82326;fill-opacity:1;fill-rule:nonzero;stroke:none"
       d="m 88.174,78.198 h -7.058 v 7.059 h 7.058 z" /><path
       id="path209"
       style="fill:#d82326;fill-opacity:1;fill-rule:nonzero;stroke:none"
       d="m 38.766,78.198 h -7.058 v 28.234 h 7.058 z" /><path
       id="path211"
       style="fill:#d82326;fill-opacity:1;fill-rule:nonzero;stroke:none"
       d="m 45.825,64.08 h -7.06 v 49.411 h 7.06 z" /><path
       id="path213"
       style="fill:#d82326;fill-opacity:1;fill-rule:nonzero;stroke:none"
       d="m 52.882,57.023 h -7.058 v 49.409 h 7.058 z" /><path
       id="path215"
       style="fill:#59501c;fill-opacity:1;fill-rule:nonzero;stroke:none"
       d="m 38.766,120.549 h -7.058 v 7.059 h 7.058 z" /><path
       id="path217"
       style="fill:#59501c;fill-opacity:1;fill-rule:nonzero;stroke:none"
       d="m 45.825,120.549 h -7.06 v 7.059 h 7.06 z" /><path
       id="path219"
       style="fill:#59501c;fill-opacity:1;fill-rule:nonzero;stroke:none"
       d="m 52.882,127.608 h -7.058 v 7.057 h 7.058 z" /><path
       id="path221"
       style="fill:#59501c;fill-opacity:1;fill-rule:nonzero;stroke:none"
       d="m 59.943,134.665 h -7.059 v 7.061 h 7.059 z" /><path
       id="path223"
       style="fill:#84a427;fill-opacity:1;fill-rule:nonzero;stroke:none"
       d="m 59.941,127.608 h -7.058 v 7.057 h 7.058 z" /><path
       id="path225"
       style="fill:#84a427;fill-opacity:1;fill-rule:nonzero;stroke:none"
       d="m 52.884,113.491 h -7.059 v 7.059 h 7.059 z" /><path
       id="path227"
       style="fill:#84a427;fill-opacity:1;fill-rule:nonzero;stroke:none"
       d="m 81.118,120.549 h -7.06 v 7.059 h 7.06 z" /><path
       id="path229"
       style="fill:#84a427;fill-opacity:1;fill-rule:nonzero;stroke:none"
       d="m 59.941,106.432 h -7.058 v 7.059 h 7.058 z" /><path
       id="path231"
       style="fill:#c4d425;fill-opacity:1;fill-rule:nonzero;stroke:none"
       d="m 52.885,120.549 h -7.059 v 7.059 h 7.059 z" /><path
       id="path233"
       style="fill:#c4d425;fill-opacity:1;fill-rule:nonzero;stroke:none"
       d="m 59.941,113.491 h -7.058 v 7.059 h 7.058 z" /><path
       id="path235"
       style="fill:#c4d425;fill-opacity:1;fill-rule:nonzero;stroke:none"
       d="m 67.002,113.491 h -7.059 v 7.059 h 7.059 z" /><path
       id="path237"
       style="fill:#c4d425;fill-opacity:1;fill-rule:nonzero;stroke:none"
       d="m 67.002,120.549 h -7.059 v 7.059 h 7.059 z" /><path
       id="path239"
       style="fill:#c4d425;fill-opacity:1;fill-rule:nonzero;stroke:none"
       d="m 74.06,120.549 h -7.058 v 7.059 h 7.058 z" /><path
       id="path241"
       style="fill:#c4d425;fill-opacity:1;fill-rule:nonzero;stroke:none"
       d="m 67,127.608 h -7.059 v 7.057 H 67 Z" /><path
       id="path243"
       style="fill:#ed2023;fill-opacity:1;fill-rule:nonzero;stroke:none"
       d="m 45.825,92.317 h -7.06 v 7.057 h 7.06 z" /><path
       id="path245"
       style="fill:#ed2023;fill-opacity:1;fill-rule:nonzero;stroke:none"
       d="m 45.825,85.256 h -7.06 v 7.061 h 7.06 z" /><path
       id="path247"
       style="fill:#ed2023;fill-opacity:1;fill-rule:nonzero;stroke:none"
       d="m 45.825,78.198 h -7.06 v 7.059 h 7.06 z" /><path
       id="path249"
       style="fill:#ed2023;fill-opacity:1;fill-rule:nonzero;stroke:none"
       d="m 45.825,71.139 h -7.06 v 7.059 h 7.06 z" /><path
       id="path251"
       style="fill:#ed2023;fill-opacity:1;fill-rule:nonzero;stroke:none"
       d="m 52.885,92.317 h -7.059 v 7.057 h 7.059 z" /><path
       id="path253"
       style="fill:#ed2023;fill-opacity:1;fill-rule:nonzero;stroke:none"
       d="m 52.885,85.256 h -7.059 v 7.061 h 7.059 z" /><path
       id="path255"
       style="fill:#ed2023;fill-opacity:1;fill-rule:nonzero;stroke:none"
       d="m 52.885,78.198 h -7.059 v 7.059 h 7.059 z" /><path
       id="path257"
       style="fill:#ed2023;fill-opacity:1;fill-rule:nonzero;stroke:none"
       d="m 52.885,71.139 h -7.059 v 7.059 h 7.059 z" /><path
       id="path259"
       style="fill:#ed2023;fill-opacity:1;fill-rule:nonzero;stroke:none"
       d="m 52.885,64.08 h -7.059 v 7.059 h 7.059 z" /><path
       id="path261"
       style="fill:#ed2023;fill-opacity:1;fill-rule:nonzero;stroke:none"
       d="m 52.885,57.021 h -7.059 v 7.059 h 7.059 z" /><path
       id="path263"
       style="fill:#ed2023;fill-opacity:1;fill-rule:nonzero;stroke:none"
       d="m 52.885,49.963 h -7.059 v 7.059 h 7.059 z" /><path
       id="path265"
       style="fill:#ed2023;fill-opacity:1;fill-rule:nonzero;stroke:none"
       d="m 59.943,92.317 h -7.059 v 7.057 h 7.059 z" /><path
       id="path267"
       style="fill:#ed2023;fill-opacity:1;fill-rule:nonzero;stroke:none"
       d="m 59.943,85.256 h -7.059 v 7.061 h 7.059 z" /><path
       id="path269"
       style="fill:#ed2023;fill-opacity:1;fill-rule:nonzero;stroke:none"
       d="m 59.943,78.198 h -7.059 v 7.059 h 7.059 z" /><path
       id="path271"
       style="fill:#ed2023;fill-opacity:1;fill-rule:nonzero;stroke:none"
       d="m 59.943,71.139 h -7.059 v 7.059 h 7.059 z" /><path
       id="path273"
       style="fill:#ed2023;fill-opacity:1;fill-rule:nonzero;stroke:none"
       d="m 59.943,64.08 h -7.059 v 7.059 h 7.059 z" /><path
       id="path275"
       style="fill:#ed2023;fill-opacity:1;fill-rule:nonzero;stroke:none"
       d="m 59.943,57.023 h -7.059 v 7.057 h 7.059 z" /><path
       id="path277"
       style="fill:#ed2023;fill-opacity:1;fill-rule:nonzero;stroke:none"
       d="m 59.943,49.965 h -7.059 v 7.057 h 7.059 z" /><path
       id="path279"
       style="fill:#ed2023;fill-opacity:1;fill-rule:nonzero;stroke:none"
       d="m 59.943,57.023 h -7.059 v 7.057 h 7.059 z" /><path
       id="path281"
       style="fill:#ed2023;fill-opacity:1;fill-rule:nonzero;stroke:none"
       d="m 67,64.08 h -7.059 v 7.059 H 67 Z" /><path
       id="path283"
       style="fill:#ed2023;fill-opacity:1;fill-rule:nonzero;stroke:none"
       d="M 67,57.021 H 59.941 V 64.08 H 67 Z" /><path
       id="path285"
       style="fill:#ed2023;fill-opacity:1;fill-rule:nonzero;stroke:none"
       d="m 67,49.963 h -7.059 v 7.059 H 67 Z" /><path
       id="path287"
       style="fill:#ed2023;fill-opacity:1;fill-rule:nonzero;stroke:none"
       d="m 67.002,92.317 h -7.059 v 7.057 h 7.059 z" /><path
       id="path289"
       style="fill:#ed2023;fill-opacity:1;fill-rule:nonzero;stroke:none"
       d="m 67.002,85.256 h -7.059 v 7.061 h 7.059 z" /><path
       id="path291"
       style="fill:#d82326;fill-opacity:1;fill-rule:nonzero;stroke:none"
       d="m 31.71,78.198 h -7.059 v 7.059 h 7.059 z" /><path
       id="path293"
       style="fill:#d82326;fill-opacity:1;fill-rule:nonzero;stroke:none"
       d="m 31.71,85.256 h -7.059 v 7.061 h 7.059 z" /><path
       id="path295"
       style="fill:#d82326;fill-opacity:1;fill-rule:nonzero;stroke:none"
       d="m 31.71,92.317 h -7.059 v 7.057 h 7.059 z" /><path
       id="path297"
       style="fill:#d82326;fill-opacity:1;fill-rule:nonzero;stroke:none"
       d="m 31.71,99.374 h -7.059 v 7.059 h 7.059 z" /><path
       id="path299"
       style="fill:#9e1b20;fill-opacity:1;fill-rule:nonzero;stroke:none"
       d="m 31.71,71.139 h -7.059 v 7.059 h 7.059 z" /><path
       id="path301"
       style="fill:#d82326;fill-opacity:1;fill-rule:nonzero;stroke:none"
       d="m 38.766,71.139 h -7.058 v 7.059 h 7.058 z" /><path
       id="path303"
       style="fill:#d82326;fill-opacity:1;fill-rule:nonzero;stroke:none"
       d="m 38.766,64.08 h -7.058 v 7.059 h 7.058 z" /><path
       id="path305"
       style="fill:#d82326;fill-opacity:1;fill-rule:nonzero;stroke:none"
       d="m 81.118,64.08 h -7.06 v 7.059 h 7.06 z" /><path
       id="path307"
       style="fill:#ed2023;fill-opacity:1;fill-rule:nonzero;stroke:none"
       d="m 67.002,78.198 h -7.059 v 7.059 h 7.059 z" /><path
       id="path309"
       style="fill:#ed2023;fill-opacity:1;fill-rule:nonzero;stroke:none"
       d="m 67.002,71.139 h -7.059 v 7.059 h 7.059 z" /><path
       id="path311"
       style="fill:#ed2023;fill-opacity:1;fill-rule:nonzero;stroke:none"
       d="m 74.06,92.317 h -7.058 v 7.057 h 7.058 z" /><path
       id="path313"
       style="fill:#ed2023;fill-opacity:1;fill-rule:nonzero;stroke:none"
       d="m 81.118,92.317 h -7.06 v 7.057 h 7.06 z" /><path
       id="path315"
       style="fill:#ed2023;fill-opacity:1;fill-rule:nonzero;stroke:none"
       d="m 81.118,85.256 h -7.06 v 7.061 h 7.06 z" /><path
       id="path317"
       style="fill:#ed2023;fill-opacity:1;fill-rule:nonzero;stroke:none"
       d="m 81.118,78.198 h -7.06 v 7.059 h 7.06 z" /><path
       id="path319"
       style="fill:#ed2023;fill-opacity:1;fill-rule:nonzero;stroke:none"
       d="m 81.118,71.139 h -7.06 v 7.059 h 7.06 z" /><path
       id="path321"
       style="fill:#ed2023;fill-opacity:1;fill-rule:nonzero;stroke:none"
       d="m 74.06,99.374 h -7.058 v 7.059 h 7.058 z" /><path
       id="path323"
       style="fill:#ed2023;fill-opacity:1;fill-rule:nonzero;stroke:none"
       d="m 74.06,85.256 h -7.058 v 7.061 h 7.058 z" /><path
       id="path325"
       style="fill:#ed2023;fill-opacity:1;fill-rule:nonzero;stroke:none"
       d="m 74.06,78.198 h -7.058 v 7.059 h 7.058 z" /><path
       id="path327"
       style="fill:#ed2023;fill-opacity:1;fill-rule:nonzero;stroke:none"
       d="m 74.06,64.08 h -7.058 v 7.059 h 7.058 z" /><path
       id="path329"
       style="fill:#ed2023;fill-opacity:1;fill-rule:nonzero;stroke:none"
       d="M 74.059,57.023 H 67 v 7.057 h 7.059 z" /><path
       id="path331"
       style="fill:#ed2023;fill-opacity:1;fill-rule:nonzero;stroke:none"
       d="m 74.06,71.139 h -7.058 v 7.059 h 7.058 z" /><path
       id="path333"
       style="fill:#ffffff;fill-opacity:1;fill-rule:nonzero;stroke:none"
       d="m 45.825,71.139 h -7.06 v 7.059 h 7.06 z" /><path
       id="path335"
       style="fill:#ffffff;fill-opacity:1;fill-rule:nonzero;stroke:none"
       d="m 59.943,57.023 h -7.059 v 7.057 h 7.059 z" /><path
       id="path337"
       style="fill:#ffffff;fill-opacity:1;fill-rule:nonzero;stroke:none"
       d="M 74.059,71.139 H 67 v 7.059 h 7.059 z" /><path
       id="path339"
       style="fill:#ffffff;fill-opacity:1;fill-rule:nonzero;stroke:none"
       d="m 59.941,85.256 h -7.058 v 7.061 h 7.058 z" /><path
       id="path341"
       style="fill:#ffffff;fill-opacity:1;fill-rule:nonzero;stroke:none"
       d="m 81.118,92.317 h -7.06 v 7.057 h 7.06 z" /><path
       id="path343"
       style="fill:#ffffff;fill-opacity:1;fill-rule:nonzero;stroke:none"
       d="m 38.766,92.317 h -7.058 v 7.057 h 7.058 z" /><path
       id="path345"
       style="fill:#9e1b20;fill-opacity:1;fill-rule:nonzero;stroke:none"
       d="m 81.118,49.965 h -7.06 v 7.059 h 7.06 z" /><path
       id="path347"
       style="fill:#ed2023;fill-opacity:1;fill-rule:nonzero;stroke:none"
       d="m 38.768,85.256 h -7.06 v 7.061 h 7.06 z" /><path
       id="path349"
       style="fill:#ed2023;fill-opacity:1;fill-rule:nonzero;stroke:none"
       d="m 38.768,78.198 h -7.06 v 7.059 h 7.06 z" /></g></svg>